<?xml version="1.0" encoding="UTF-8"?>
<svg version="1.1" xmlns="http://www.w3.org/2000/svg" width="64" height="64">
<path d="M0 0 C0.88022827 0.00404846 1.76045654 0.00809692 2.6673584 0.01226807 C4.0210553 0.00939789 4.0210553 0.00939789 5.40209961 0.00646973 C7.31197386 0.00510748 9.22185736 0.00880669 11.13171387 0.01715088 C14.0617749 0.02784986 16.99122278 0.01725696 19.92126465 0.00445557 C21.77413059 0.00577715 23.62699615 0.00833953 25.4798584 0.01226807 C26.80020081 0.00619537 26.80020081 0.00619537 28.1472168 0 C34.3436918 0.04797647 34.3436918 0.04797647 36.5736084 2.27789307 C36.7767334 4.19586182 36.7767334 4.19586182 36.8236084 6.46539307 C37.21762477 11.25539603 38.94903269 13.53625654 42.29626465 16.86773682 C43.5736084 18.27789307 43.5736084 18.27789307 43.5736084 20.27789307 C41.9236084 20.27789307 40.2736084 20.27789307 38.5736084 20.27789307 C38.5736084 22.91789307 38.5736084 25.55789307 38.5736084 28.27789307 C39.2954834 28.50476807 40.0173584 28.73164307 40.7611084 28.96539307 C44.6534947 30.78184001 47.63498326 33.40064279 49.5736084 37.27789307 C50.0835183 42.86182439 50.31230903 47.71841395 47.8861084 52.84039307 C44.78425619 56.10991296 42.19010042 58.0363983 37.67126465 58.71148682 C31.35113849 58.71962083 27.32083178 58.64020645 22.5736084 54.27789307 C22.2436084 53.61789307 21.9136084 52.95789307 21.5736084 52.27789307 C15.85413975 51.3700409 10.32464663 51.19762052 4.5423584 51.34039307 C2.5736084 51.27789307 2.5736084 51.27789307 1.5736084 50.27789307 C1.41472748 47.98800525 1.32222767 45.69345866 1.25720215 43.39898682 C1.23642105 42.71232437 1.21563995 42.02566193 1.19422913 41.31819153 C1.12866696 39.11736372 1.06981825 36.91641332 1.0111084 34.71539307 C0.96792947 33.22644792 0.92431539 31.73751533 0.88024902 30.24859619 C0.7729791 26.59182753 0.67173068 22.93491989 0.5736084 19.27789307 C-0.7257666 19.29851807 -2.0251416 19.31914307 -3.3638916 19.34039307 C-4.71804793 19.36188761 -6.07395243 19.34937505 -7.4263916 19.27789307 C-9.46905589 17.23522878 -8.61147104 13.14097873 -8.6138916 10.34039307 C-8.6261377 9.5985376 -8.63838379 8.85668213 -8.65100098 8.09234619 C-8.65627638 6.15275677 -8.54828062 4.21365597 -8.4263916 2.27789307 C-5.73678977 -0.41170877 -3.65531642 0.02830144 0 0 Z " fill="#DDDDDD" transform="translate(11.4263916015625,2.72210693359375)"/>
<path d="M0 0 C3.39542707 3.06416589 5.31131595 5.63115088 5.99609375 10.21484375 C6.00400672 16.36321801 6.0090054 20.62564296 1.5625 25.3125 C-3.87080193 29.19609725 -8.96355936 29.11845743 -15.4375 28.3125 C-19.21010108 26.84096918 -21.18423253 24.6924012 -23.4375 21.3125 C-24.92138758 15.9705047 -25.4080369 10.68024886 -22.875 5.625 C-17.66249342 -2.43894746 -8.34405831 -4.09617408 0 0 Z " fill="#FED551" transform="translate(55.4375,32.6875)"/>
<path d="M0 0 C0.61875 0.28875 1.2375 0.5775 1.875 0.875 C2.57625 1.143125 3.2775 1.41125 4 1.6875 C6.40680453 3.21180953 6.99506143 4.16185607 7.875 6.875 C8.20058095 11.35173811 8.16550788 14.94841507 5.875 18.875 C3.2615471 20.99401586 1.75657548 21.875 -1.625 21.875 C-5.10487805 20.48304878 -6.81673937 18.82444414 -9.125 15.875 C-10.08506591 12.29075392 -10.32153674 9.81400889 -9.5625 6.1875 C-7.38727661 2.68822759 -4.3322115 -0.25483597 0 0 Z " fill="#FEB84F" transform="translate(49.125,35.125)"/>
<path d="M0 0 C2.5625 0.3125 2.5625 0.3125 4.20703125 1.390625 C6.27302324 4.31992776 5.88551602 6.84467522 5.8125 10.375 C5.79703125 11.62410156 5.7815625 12.87320312 5.765625 14.16015625 C5.5625 17.3125 5.5625 17.3125 4.5625 19.3125 C-1.58984375 19.41015625 -1.58984375 19.41015625 -3.4375 19.3125 C-5.48016429 17.26983571 -4.62257944 13.17558566 -4.625 10.375 C-4.63724609 9.63314453 -4.64949219 8.89128906 -4.66210938 8.12695312 C-4.66738478 6.18736371 -4.55938902 4.2482629 -4.4375 2.3125 C-2.4375 0.3125 -2.4375 0.3125 0 0 Z " fill="#E0E0E0" transform="translate(7.4375,2.6875)"/>
<path d="M0 0 C0.66 0 1.32 0 2 0 C2 0.66 2 1.32 2 2 C2.5775 2.226875 3.155 2.45375 3.75 2.6875 C6.59739809 4.34848222 8.12067193 6.31524561 10 9 C10 9.66 10 10.32 10 11 C8.35 11 6.7 11 5 11 C5 13.64 5 16.28 5 19 C2.36 19 -0.28 19 -3 19 C-3 16.36 -3 13.72 -3 11 C-4.65 11 -6.3 11 -8 11 C-7.59007812 10.45730469 -7.18015625 9.91460937 -6.7578125 9.35546875 C-6.21898437 8.64003906 -5.68015625 7.92460937 -5.125 7.1875 C-4.59132812 6.47980469 -4.05765625 5.77210937 -3.5078125 5.04296875 C-2.29185219 3.39543703 -1.13583859 1.70375789 0 0 Z " fill="#46A6F5" transform="translate(45,12)"/>
<path d="M0 0 C5.70589472 -0.45647158 8.60098008 0.30082416 13 4 C16.9138993 9.41066365 16.78786547 14.53950315 16 21 C13.88545696 25.46403531 11.57919805 28.0831264 7 30 C3.1875 30.1875 3.1875 30.1875 0 30 C3 28 3 28 5.5 26.8125 C8.93873898 24.31941424 9.72836589 22.01568667 11 18 C11.61820047 13.05439626 10.9482557 9.6770263 8.35546875 5.51171875 C5.9921229 2.87594111 3.32478082 2.08694758 0 1 C0 0.67 0 0.34 0 0 Z " fill="#FECD2E" transform="translate(45,31)"/>
<path d="M0 0 C-0.78375 0.556875 -1.5675 1.11375 -2.375 1.6875 C-5.19503956 4.17182056 -6.15720706 5.37599035 -7 9 C-6.85949863 13.00428897 -6.66050339 15.21165724 -4.0625 18.3125 C-3.381875 18.869375 -2.70125 19.42625 -2 20 C-1.34 20.66 -0.68 21.32 0 22 C-6.35227273 21.51136364 -6.35227273 21.51136364 -9.375 19.125 C-12.33294135 15.25692285 -12.48219661 11.74159995 -12 7 C-8.87139139 1.75841319 -6.01585844 -0.15831206 0 0 Z " fill="#FFAA2B" transform="translate(47,35)"/>
<path d="M0 0 C1.70884005 1.62339805 3.37446717 3.29319053 5 5 C5 5.66 5 6.32 5 7 C4.01 7 3.02 7 2 7 C2 9.31 2 11.62 2 14 C0.68 14.33 -0.64 14.66 -2 15 C-2 13.02 -2 11.04 -2 9 C-3.65 9 -5.3 9 -7 9 C-6.02180976 7.68677212 -5.0424189 6.37443848 -4.0625 5.0625 C-3.51722656 4.33160156 -2.97195312 3.60070312 -2.41015625 2.84765625 C-1 1 -1 1 0 0 Z " fill="#66B6F5" transform="translate(44,14)"/>
<path d="M0 0 C0.66 0 1.32 0 2 0 C2 0.66 2 1.32 2 2 C2.99 2 3.98 2 5 2 C5 2.66 5 3.32 5 4 C3.02 4 1.04 4 -1 4 C-1 4.99 -1 5.98 -1 7 C0.65 7.33 2.3 7.66 4 8 C4.6875 9.75 4.6875 9.75 5 12 C3.6875 14.25 3.6875 14.25 2 16 C1.34 16 0.68 16 0 16 C0 15.34 0 14.68 0 14 C-0.99 14 -1.98 14 -3 14 C-3 13.34 -3 12.68 -3 12 C-1.02 12 0.96 12 3 12 C3 11.01 3 10.02 3 9 C1.35 8.67 -0.3 8.34 -2 8 C-2.6875 6.25 -2.6875 6.25 -3 4 C-1.6875 1.75 -1.6875 1.75 0 0 Z " fill="#EFEAE3" transform="translate(45,38)"/>
</svg>
